<?xml version="1.0" encoding="UTF-8" standalone="no"?>
<!-- Created with Inkscape (http://www.inkscape.org/) -->

<svg
   xmlns:dc="http://purl.org/dc/elements/1.1/"
   xmlns:cc="http://creativecommons.org/ns#"
   xmlns:rdf="http://www.w3.org/1999/02/22-rdf-syntax-ns#"
   xmlns:svg="http://www.w3.org/2000/svg"
   xmlns="http://www.w3.org/2000/svg"
   version="1.1"
   width="577"
   height="222.76361"
   id="svg4626">
  <defs
     id="defs4628" />
  <metadata
     id="metadata4631">
    <rdf:RDF>
      <cc:Work
         rdf:about="">
        <dc:format>image/svg+xml</dc:format>
        <dc:type
           rdf:resource="http://purl.org/dc/dcmitype/StillImage" />
        <dc:title></dc:title>
      </cc:Work>
    </rdf:RDF>
  </metadata>
  <g
    <path
       d="M 2.9594473,1008.0751 C 130.53303,879.41339 252.10987,733.64855 488.3642,914.95025 c 71.71909,41.82825 59.05,40.58685 88.55038,60.86772 -1.38112,2.99763 0.0278,6.63949 -8.6753,7.94639 C 554.81171,972.56063 542.77959,958.83415 523.96357,957.37241 232.73929,1124.2738 151.8982,1022.7285 2.9594473,1008.0751 z"
       id="path4549"
       style="fill:none;stroke:#000000;stroke-width:0.64535451px;stroke-linecap:butt;stroke-linejoin:miter;stroke-opacity:1" />
    <path
       d="M 0.44967725,1007.3358 C 160.97477,925.73538 212.76961,858.52622 538.39873,956.16843"
       id="path4577"
       style="fill:none;stroke:#000000;stroke-width:0.64535451px;stroke-linecap:butt;stroke-linejoin:miter;stroke-opacity:1" />
    <path
       d="M 65.0459,119.9356 C 113.88557,72.262244 146.46953,47.251276 184.54464,28.210117 225.06632,7.9454433 242.387,3.9324518 287.40179,4.379357 c 31.42545,0.3119906 40.88031,1.5290223 61.42317,7.906405 34.47583,10.702772 72.37337,29.906414 112.47825,56.9956 19.06852,12.879974 44.58578,29.554448 56.70503,37.054388 12.11929,7.49994 27.43915,18.15124 34.04415,23.66956 6.605,5.51833 14.61165,11.85623 17.79257,14.08423 6.06131,4.24551 4.77645,9.03012 -1.60566,5.97928 -8.16949,-3.90523 -30.98551,-21.6339 -30.22369,-23.48459 0.95298,-2.315 -65.30551,-20.93459 -110.61382,-31.084071 C 378.11019,84.458376 342.31081,79.664319 295.97321,77.899956 217.44227,74.909787 171.95393,86.395639 83.93966,131.43864 53.566603,146.98264 27.777382,159.64853 26.630281,159.58507 25.48318,159.5216 42.770209,141.67934 65.0459,119.9356 z"
       transform="translate(0.3125,829.59531)"
       id="path2997"
       style="fill:#a0a0a0;stroke:none" />
    <path
       d="M 180.25893,215.38718 C 168.47321,213.3371 130.05272,204.46891 94.88006,195.68011 59.707397,186.8913 27.564539,179.68077 23.451489,179.65671 4.4800286,179.54572 11.235956,174.11746 66.822106,144.80927 153.58269,99.064142 184.85244,88.03018 244.49918,82.11346 c 63.22058,-6.271229 144.77055,5.089974 255.75975,35.63137 l 24.28571,6.68281 -15.71428,9.09959 c -46.71475,27.05085 -120.99617,59.08931 -165.71429,71.47455 -52.7274,14.6035 -115.56946,18.61094 -162.85714,10.3854 z"
       transform="translate(0.3125,829.59531)"
       id="path2999"
       style="fill:#ff6600;stroke:none" />
    <path
       d="m 45.2572,142.82776 c 4.135227,-7.72674 66.30177,-64.107707 90.21947,-81.823116 25.07055,-18.569311 62.8101,-39.000577 86.8169,-47.000543 C 245.30322,6.3364224 290.65332,3.5022576 319.08831,7.9548916 362.5125,14.754685 401.62773,32.875307 474.91819,80.145022 528.5325,114.72434 541.8821,124.38044 532.54464,121.82768 399.3501,85.413784 351.20559,76.912593 277.9189,76.866759 c -66.65351,-0.04169 -99.0606,8.371445 -181.687885,47.167561 -28.3914,13.33066 -52.130733,24.23757 -52.754074,24.23757 -0.623341,0 0.177775,-2.44986 1.780259,-5.44413 z"
       transform="translate(0.3125,829.59531)"
       id="path3769"
       style="fill:#e9c6af;stroke:none" />
    <path
       d="m 188.25893,215.05344 c -6.13406,-1.20236 -145.938658,-32.42369 -165.425847,-36.9431 -6.761211,-1.56804 -6.72236,-1.67913 2.857143,-8.17003 15.641671,-10.5985 85.413644,-46.59443 113.987924,-58.80728 89.12806,-38.093996 174.83261,-38.030809 329.29506,0.24277 26.32143,6.52208 47.85715,12.90261 47.85715,14.17896 0,3.62146 -74.52283,40.33843 -115.71429,57.01177 -20.42857,8.26901 -51.92857,18.80483 -70,23.41295 -29.01617,7.39896 -38.86909,8.50088 -84.28571,9.42622 -28.28572,0.57632 -54.64286,0.4178 -58.57143,-0.35226 z"
       transform="translate(0.3125,829.59531)"
       id="path3771"
       style="fill:#e9c6af;stroke:none" />
  </g>
</svg>
